<?xml version="1.0" encoding="UTF-8"?>
<!DOCTYPE svg PUBLIC "-//W3C//DTD SVG 1.1//EN" "http://www.w3.org/Graphics/SVG/1.1/DTD/svg11.dtd">
<svg version="1.1" xmlns="http://www.w3.org/2000/svg" xmlns:xlink="http://www.w3.org/1999/xlink" x="0px" y="0px" width="444" height="385" viewBox="0, 0, 444, 385">
  <g id="proximity layer">
    <g>
      <g>
        <g opacity="0.675">
          <path d="M5.186,381.199 L222.5,4.801 L439.814,381.199 z" fill="url(#Gradient_1)"/>
          <path d="M5.186,381.199 L222.5,4.801 L439.814,381.199 z" fill-opacity="0" stroke="#B3B3B3" stroke-width="3.5"/>
        </g>
        <g opacity="0.465">
          <path d="M5.186,381.199 L222.5,4.801 L439.814,381.199 z" fill="url(#Gradient_2)"/>
          <path d="M5.186,381.199 L222.5,4.801 L439.814,381.199 z" fill-opacity="0" stroke="#B3B3B3" stroke-width="3.5"/>
        </g>
      </g>
      <g>
        <g>
          <path d="M257.559,269.91 L225.321,215.204" fill="#731B5D"/>
          <path d="M260.433,269.957 L228.196,215.252 L228.196,215.252 C227.038,213.287 224.813,211.673 223.225,211.647 C221.638,211.62 221.289,213.191 222.447,215.156 C222.447,215.156 222.447,215.156 222.447,215.156 L254.685,269.863 C254.685,269.863 254.685,269.863 254.685,269.863 C255.843,271.828 258.068,273.441 259.656,273.467 C261.243,273.493 261.591,271.922 260.433,269.957 L260.433,269.957" fill="#731B5D"/>
        </g>
        <g>
          <path d="M259.089,270.594 L187.303,270.28" fill="#731B5D"/>
          <path d="M257.672,268.222 L185.887,267.909 L185.887,267.909 C184.836,267.904 184.618,268.961 185.4,270.271 C186.182,271.581 187.668,272.647 188.718,272.652 C188.718,272.652 188.718,272.652 188.718,272.652 L260.506,272.965 C261.557,272.97 261.774,271.911 260.991,270.601 C260.209,269.292 258.723,268.226 257.672,268.222 L257.672,268.222" fill="#731B5D"/>
        </g>
        <path d="M188.848,288.875 L190.223,276.106 L180.495,284.491 L187.647,273.824 L175.137,276.728 L186.426,270.606 L174,267.364 L186.841,267.19 L177.345,258.544 L188.796,264.358 L184.405,252.289 L191.843,262.758 L193.564,250.032 L195.285,262.758 L202.723,252.289 L198.332,264.358 L209.783,258.544 L200.287,267.19 L213.128,267.364 L200.702,270.606 L211.991,276.728 L199.481,273.824 L206.633,284.491 L196.905,276.106 L198.28,288.875 L193.564,276.929 z" fill="#AC1806"/>
        <path d="M214.263,216.595 C209.409,202.246 237.872,202.194 233.237,216.491 C231.976,220.378 227.03,220.375 222.832,219.674 C215.223,218.403 217.175,222.609 210.334,223.255 C206.128,223.652 215.499,220.249 214.263,216.595 z" fill="#1F9A38"/>
        <path d="M250.022,272.593 C245.168,258.244 273.631,258.192 268.996,272.489 C267.735,276.376 262.789,276.373 258.591,275.672 C250.982,274.401 252.934,278.607 246.093,279.253 C241.887,279.65 251.258,276.247 250.022,272.593 z" fill="#FFE600"/>
      </g>
      <g>
        <path d="M27.772,367.145 L125.33,198.169 L222.888,367.145 z" fill="#AC1806"/>
        <path d="M27.772,367.145 L125.33,198.169 L222.888,367.145 z" fill-opacity="0" stroke="#C0C0C0" stroke-width="3"/>
      </g>
      <g>
        <path d="M222.477,367.178 L319.852,198.518 L417.227,367.178 z" fill="#FFE600"/>
        <path d="M222.477,367.178 L319.852,198.518 L417.227,367.178 z" fill-opacity="0" stroke="#C0C0C0" stroke-width="3"/>
      </g>
      <g>
        <path d="M125.012,198.873 L222.57,29.897 L320.128,198.873 z" fill="#049B00"/>
        <path d="M125.012,198.873 L222.57,29.897 L320.128,198.873 z" fill-opacity="0" stroke="#C0C0C0" stroke-width="3"/>
      </g>
      <g>
        <g>
          <path d="M144.789,355.928 C120.415,366.476 92.106,355.267 81.559,330.894 C71.011,306.52 82.22,278.211 106.593,267.663 C130.967,257.116 159.276,268.325 169.824,292.698 C180.371,317.072 169.162,345.381 144.789,355.928 z" fill-opacity="0" stroke="#000000" stroke-width="5.5"/>
          <path d="M169.664,292.253 L81.672,331.359" fill-opacity="0" stroke="#000000" stroke-width="5.5"/>
          <path d="M77.615,313.125 C88.062,275.035 132.811,262.479 159.604,277.721" fill-opacity="0" stroke="#000000" stroke-width="5.5"/>
          <path d="M90.947,344.976 C125.865,363.435 166.549,338.793 173.78,308.828" fill-opacity="0" stroke="#000000" stroke-width="5.5"/>
          <path d="M79.152,323.308 C99.764,289.327 138.718,279.834 167.572,288.387" fill-opacity="0" stroke="#000000" stroke-width="5.5"/>
          <path d="M85.462,337.961 C124.343,346.197 158.036,324.125 171.554,297.237" fill-opacity="0" stroke="#000000" stroke-width="5.5"/>
          <path d="M144.863,356.39 L105.757,268.398" fill-opacity="0" stroke="#000000" stroke-width="5.5"/>
          <path d="M123.012,263.744 C161.102,274.191 174.56,319.382 159.318,346.175" fill-opacity="0" stroke="#000000" stroke-width="5.5"/>
          <path d="M91.656,277.801 C73.197,312.718 97.337,352.563 127.302,359.793" fill-opacity="0" stroke="#000000" stroke-width="5.5"/>
          <path d="M113.257,265.51 C147.238,286.122 157.143,325.174 148.59,354.029" fill-opacity="0" stroke="#000000" stroke-width="5.5"/>
          <path d="M99.637,271.357 C91.4,310.238 112.542,344.401 139.43,357.919" fill-opacity="0" stroke="#000000" stroke-width="5.5"/>
        </g>
        <g>
          <path d="M144.789,355.928 C120.415,366.476 92.106,355.267 81.559,330.894 C71.011,306.52 82.22,278.211 106.593,267.663 C130.967,257.116 159.276,268.325 169.824,292.698 C180.371,317.072 169.162,345.381 144.789,355.928 z" fill-opacity="0" stroke="#A9A9A9" stroke-width="2"/>
          <path d="M169.664,292.253 L81.672,331.359" fill-opacity="0" stroke="#A9A9A9" stroke-width="2"/>
          <path d="M77.615,313.125 C88.062,275.035 132.811,262.479 159.604,277.721" fill-opacity="0" stroke="#A9A9A9" stroke-width="2"/>
          <path d="M90.947,344.976 C125.865,363.435 166.549,338.793 173.78,308.828" fill-opacity="0" stroke="#A9A9A9" stroke-width="2"/>
          <path d="M79.152,323.308 C99.764,289.327 138.718,279.834 167.572,288.387" fill-opacity="0" stroke="#A9A9A9" stroke-width="2"/>
          <path d="M85.462,337.961 C124.343,346.197 158.036,324.125 171.554,297.237" fill-opacity="0" stroke="#A9A9A9" stroke-width="2"/>
          <path d="M144.863,356.39 L105.757,268.398" fill-opacity="0" stroke="#A9A9A9" stroke-width="2"/>
          <path d="M123.012,263.744 C161.102,274.191 174.56,319.382 159.318,346.175" fill-opacity="0" stroke="#A9A9A9" stroke-width="2"/>
          <path d="M91.656,277.801 C73.197,312.718 97.337,352.563 127.302,359.793" fill-opacity="0" stroke="#A9A9A9" stroke-width="2"/>
          <path d="M113.257,265.51 C147.238,286.122 157.143,325.174 148.59,354.029" fill-opacity="0" stroke="#A9A9A9" stroke-width="2"/>
          <path d="M99.637,271.357 C91.4,310.238 112.542,344.401 139.43,357.919" fill-opacity="0" stroke="#A9A9A9" stroke-width="2"/>
        </g>
      </g>
      <g>
        <path d="M222.358,72.616 L221.222,72.543 L219.655,72.154 L218.427,71.53 L217.348,70.688 L216.445,69.654 L215.751,68.462 L215.296,67.144 L215.108,65.729 L215.134,65.19 L215.128,65.593 L215.201,64.458 L215.59,62.891 L216.214,61.663 L217.056,60.584 L218.09,59.681 L219.282,58.987 L220.6,58.532 L222.015,58.344 L222.554,58.37 L222.15,58.364 L223.286,58.437 L224.853,58.826 L226.081,59.45 L227.16,60.292 L228.063,61.326 L228.757,62.518 L229.212,63.836 L229.4,65.251 L229.374,65.79 L229.38,65.387 L229.307,66.522 L228.918,68.089 L228.294,69.317 L227.452,70.396 L226.418,71.299 L225.226,71.993 L223.908,72.448 L222.493,72.636 L221.954,72.61 L221.954,72.61 C219.746,72.691 218.022,74.547 218.103,76.754 C218.184,78.962 220.04,80.686 222.247,80.605 L223.983,80.496 L226.919,79.859 L229.611,78.684 L231.997,77.034 L234.019,74.964 L235.62,72.531 L236.734,69.796 L237.29,67.036 L237.363,65.9 L237.363,65.9 C237.372,65.766 237.374,65.631 237.369,65.497 L237.369,65.497 L237.26,63.761 L236.623,60.825 L235.448,58.133 L233.798,55.747 L231.728,53.725 L229.295,52.124 L226.56,51.01 L223.8,50.454 L222.664,50.381 L222.664,50.381 C222.53,50.372 222.395,50.37 222.261,50.375 L222.261,50.375 L220.525,50.484 L217.589,51.121 L214.897,52.296 L212.511,53.946 L210.489,56.016 L208.888,58.449 L207.774,61.184 L207.218,63.944 L207.145,65.08 L207.145,65.08 C207.136,65.214 207.134,65.349 207.139,65.483 L207.139,65.483 L207.248,67.219 L207.885,70.155 L209.06,72.847 L210.71,75.233 L212.78,77.255 L215.213,78.856 L217.948,79.97 L220.708,80.526 L221.844,80.599 C221.844,80.599 221.844,80.599 221.844,80.599 C224.049,80.741 225.951,79.069 226.092,76.864 C226.234,74.66 224.562,72.758 222.358,72.616 L222.358,72.616" fill="#000000"/>
        <path d="M201.802,86.318 L199.421,119.713 L199.421,119.713 C199.264,121.917 200.922,123.831 203.126,123.988 C205.33,124.145 207.243,122.486 207.4,120.282 C207.4,120.282 207.4,120.282 207.4,120.282 L209.781,86.887 C209.781,86.887 209.781,86.887 209.781,86.887 C209.938,84.683 208.28,82.769 206.076,82.612 C203.872,82.455 201.959,84.114 201.802,86.318 L201.802,86.318" fill="#000000"/>
        <path d="M233.74,86.49 L236.992,119.806 L236.992,119.806 C237.207,122.004 239.163,123.613 241.362,123.398 C243.561,123.184 245.169,121.227 244.954,119.028 L241.702,85.712 C241.487,83.514 239.531,81.905 237.332,82.12 C235.133,82.334 233.525,84.291 233.74,86.49 L233.74,86.49" fill="#000000"/>
        <path d="M225.527,135.415 L231.739,192.367 L231.739,192.367 C231.978,194.563 233.953,196.149 236.149,195.909 C238.345,195.67 239.931,193.695 239.691,191.499 L233.479,134.547 C233.24,132.351 231.265,130.765 229.069,131.005 C226.873,131.244 225.287,133.219 225.527,135.415 L225.527,135.415" fill="#000000"/>
        <path d="M211.691,134.726 L206.753,191.768 L206.753,191.768 C206.563,193.969 208.192,195.908 210.393,196.098 C212.594,196.289 214.533,194.659 214.723,192.458 C214.723,192.458 214.723,192.458 214.723,192.458 L219.661,135.416 C219.661,135.416 219.661,135.416 219.661,135.416 C219.851,133.215 218.222,131.276 216.021,131.086 C213.82,130.895 211.881,132.525 211.691,134.726 L211.691,134.726" fill="#000000"/>
        <path d="M218.135,77.051 L218.535,133.294 L218.535,133.294 C218.551,135.503 220.355,137.281 222.564,137.266 C224.773,137.25 226.551,135.446 226.535,133.237 C226.535,133.237 226.535,133.237 226.535,133.237 L226.135,76.994 C226.119,74.785 224.315,73.007 222.106,73.022 C219.897,73.038 218.119,74.842 218.135,77.051 L218.135,77.051" fill="#000000"/>
        <path d="M216.363,135.285 L229.417,135.279" fill-opacity="0" stroke="#000000" stroke-width="8.5"/>
        <path d="M237.538,81.843 L206.195,81.899 L206.195,81.899 C203.848,81.903 201.949,83.809 201.953,86.157 C201.957,88.504 203.863,90.403 206.21,90.399 C206.21,90.399 206.21,90.399 206.21,90.399 L237.553,90.343 C237.553,90.343 237.553,90.343 237.553,90.343 C239.9,90.339 241.799,88.433 241.795,86.085 C241.791,83.738 239.885,81.839 237.538,81.843 L237.538,81.843" fill="#000000"/>
      </g>
      <g>
        <path d="M222.229,74.612 L221.093,74.539 L219.228,74.108 L217.623,73.361 L216.206,72.329 L215.011,71.049 L214.078,69.558 L213.444,67.897 L213.143,66.102 L213.135,65.263 L213.132,65.465 L213.205,64.329 L213.636,62.464 L214.383,60.859 L215.415,59.442 L216.695,58.247 L218.186,57.314 L219.847,56.68 L221.642,56.379 L222.481,56.371 L222.279,56.368 L223.415,56.441 L225.28,56.872 L226.885,57.619 L228.302,58.651 L229.497,59.931 L230.43,61.422 L231.064,63.083 L231.365,64.878 L231.373,65.717 L231.376,65.515 L231.303,66.651 L230.872,68.516 L230.125,70.121 L229.093,71.538 L227.813,72.733 L226.322,73.666 L224.661,74.3 L222.866,74.601 L222.027,74.609 L222.027,74.609 C220.924,74.649 220.062,75.577 220.102,76.681 C220.143,77.785 221.07,78.647 222.174,78.606 L223.611,78.531 L226.166,78.006 L228.515,77.012 L230.602,75.6 L232.377,73.822 L233.788,71.728 L234.78,69.369 L235.294,66.908 L235.367,65.772 L235.367,65.772 C235.372,65.704 235.373,65.637 235.37,65.57 L235.37,65.57 L235.295,64.133 L234.77,61.578 L233.776,59.229 L232.364,57.142 L230.586,55.367 L228.492,53.956 L226.133,52.964 L223.672,52.45 L222.536,52.377 L222.536,52.377 C222.469,52.372 222.401,52.371 222.334,52.374 L222.334,52.374 L220.897,52.449 L218.342,52.974 L215.993,53.968 L213.906,55.38 L212.131,57.158 L210.72,59.252 L209.728,61.611 L209.214,64.072 L209.141,65.208 L209.141,65.208 C209.136,65.276 209.135,65.343 209.138,65.41 L209.138,65.41 L209.213,66.847 L209.738,69.402 L210.732,71.751 L212.144,73.838 L213.922,75.613 L216.016,77.024 L218.375,78.016 L220.836,78.53 L221.972,78.603 C221.972,78.603 221.972,78.603 221.972,78.603 C223.075,78.674 224.026,77.838 224.097,76.736 C224.168,75.634 223.331,74.683 222.229,74.612 L222.229,74.612" fill="#A9A9A9"/>
        <path d="M203.797,86.46 L201.416,119.856 L201.416,119.856 C201.337,120.957 202.166,121.914 203.268,121.993 C204.37,122.071 205.327,121.242 205.405,120.14 C205.405,120.14 205.405,120.14 205.405,120.14 L207.786,86.744 C207.786,86.744 207.786,86.744 207.786,86.744 C207.865,85.643 207.036,84.686 205.934,84.607 C204.832,84.529 203.875,85.358 203.797,86.46 L203.797,86.46" fill="#A9A9A9"/>
        <path d="M235.73,86.295 L238.983,119.611 L238.983,119.611 C239.09,120.711 240.068,121.515 241.168,121.408 C242.267,121.3 243.071,120.322 242.964,119.223 L239.711,85.907 C239.604,84.807 238.626,84.003 237.526,84.11 C236.427,84.218 235.623,85.196 235.73,86.295 L235.73,86.295" fill="#A9A9A9"/>
        <path d="M227.515,135.198 L233.727,192.15 L233.727,192.15 C233.847,193.248 234.834,194.041 235.932,193.921 C237.03,193.801 237.823,192.814 237.703,191.716 L231.491,134.764 C231.371,133.666 230.384,132.873 229.286,132.993 C228.188,133.113 227.395,134.1 227.515,135.198 L227.515,135.198" fill="#A9A9A9"/>
        <path d="M213.683,134.898 L208.746,191.941 L208.746,191.941 C208.65,193.041 209.465,194.011 210.566,194.106 C211.666,194.201 212.635,193.386 212.731,192.286 C212.731,192.286 212.731,192.286 212.731,192.286 L217.668,135.243 C217.668,135.243 217.668,135.243 217.668,135.243 C217.764,134.143 216.949,133.173 215.848,133.078 C214.748,132.983 213.779,133.798 213.683,134.898 L213.683,134.898" fill="#A9A9A9"/>
        <path d="M220.135,77.036 L220.535,133.28 L220.535,133.28 C220.543,134.385 221.445,135.274 222.55,135.266 C223.654,135.258 224.543,134.356 224.535,133.252 C224.535,133.252 224.535,133.252 224.535,133.252 L224.135,77.008 C224.127,75.903 223.225,75.014 222.12,75.022 C221.016,75.03 220.127,75.932 220.135,77.036 L220.135,77.036" fill="#A9A9A9"/>
        <path d="M216.363,135.285 L229.417,135.279" fill-opacity="0" stroke="#A9A9A9" stroke-width="3.5"/>
        <path d="M237.542,84.343 L206.2,84.399 L206.2,84.399 C205.233,84.401 204.451,85.186 204.453,86.152 C204.454,87.119 205.239,87.901 206.206,87.899 C206.206,87.899 206.206,87.899 206.206,87.899 L237.548,87.843 C237.548,87.843 237.548,87.843 237.548,87.843 C238.515,87.841 239.297,87.056 239.295,86.09 C239.294,85.123 238.509,84.341 237.542,84.343 L237.542,84.343" fill="#A9A9A9"/>
      </g>
      <g>
        <g>
          <g>
            <path d="M320.357,357.716 C318.942,357.716 317.795,356.284 317.795,354.517 C317.795,352.75 318.942,351.318 320.357,351.318 C321.772,351.318 322.919,352.75 322.919,354.517 C322.919,356.284 321.772,357.716 320.357,357.716 z" fill="#000000"/>
            <path d="M320.357,357.716 C318.942,357.716 317.795,356.284 317.795,354.517 C317.795,352.75 318.942,351.318 320.357,351.318 C321.772,351.318 322.919,352.75 322.919,354.517 C322.919,356.284 321.772,357.716 320.357,357.716 z" fill-opacity="0" stroke="#000000" stroke-width="5"/>
          </g>
          <path d="M295.902,284.765 L295.31,282.88 L294.611,279.577 L294.414,276.661 L294.634,274.032 L295.221,271.665 L296.134,269.531 L297.349,267.597 L298.85,265.841 L300.626,264.255 L302.66,262.84 L306.223,261.022 L311.586,259.335 L317.354,258.521 L323.297,258.581 L329.102,259.527 L334.456,261.346 L337.917,263.224 L339.897,264.682 L341.68,266.362 L343.17,268.215 L344.351,270.238 L345.21,272.441 L345.731,274.845 L345.89,277.479 L345.647,280.374 L344.952,283.553 L344.445,285.161 L344.507,284.978 L343.854,286.73 L342.419,289.683 L339.809,293.597 L335.654,298.404 L331.024,303.367 L327.434,307.637 L325.089,310.927 L322.927,314.593 L321,318.737 L319.383,323.421 L318.141,328.707 L317.333,334.657 L317.01,341.339 L317.046,345.038 L317.046,345.038 C317.066,346.833 318.538,348.271 320.332,348.251 C322.127,348.231 323.566,346.76 323.546,344.965 C323.546,344.965 323.546,344.965 323.546,344.965 L323.503,341.641 L323.776,335.515 L324.473,330.174 L325.534,325.521 L326.903,321.458 L328.535,317.879 L330.392,314.686 L332.413,311.816 L335.778,307.799 L340.588,302.635 L345.239,297.17 L348.278,292.499 L349.943,289.002 L350.597,287.25 L350.597,287.25 C350.62,287.19 350.641,287.129 350.66,287.067 L350.66,287.067 L351.315,284.884 L352.131,280.84 L352.372,276.991 L352.06,273.361 L351.226,269.981 L349.915,266.879 L348.184,264.078 L346.089,261.587 L343.687,259.402 L340.951,257.476 L336.499,255.176 L330.107,253.105 L323.322,252.081 L316.397,252.092 L309.585,253.15 L303.224,255.255 L298.896,257.541 L296.234,259.463 L293.845,261.694 L291.785,264.236 L290.114,267.08 L288.887,270.204 L288.15,273.576 L287.933,277.166 L288.257,280.949 L289.108,284.827 L289.7,286.712 C290.238,288.424 292.062,289.377 293.774,288.839 C295.487,288.302 296.439,286.478 295.902,284.765 L295.902,284.765" fill="#000000"/>
        </g>
        <g>
          <path d="M320.357,357.716 C318.942,357.716 317.795,356.284 317.795,354.517 C317.795,352.75 318.942,351.318 320.357,351.318 C321.772,351.318 322.919,352.75 322.919,354.517 C322.919,356.284 321.772,357.716 320.357,357.716 z" fill-opacity="0" stroke="#C0C0C0" stroke-width="2"/>
          <path d="M294.041,285.348 L293.45,283.463 L292.705,279.988 L292.47,276.812 L292.689,273.894 L293.321,271.226 L294.328,268.795 L295.68,266.588 L297.348,264.596 L299.308,262.816 L301.531,261.25 L305.323,259.291 L310.986,257.478 L317.067,256.592 L323.305,256.63 L329.404,257.6 L335.069,259.494 L338.827,261.498 L341.034,263.097 L343.003,264.929 L344.674,266.973 L346.02,269.23 L347.015,271.702 L347.63,274.399 L347.835,277.331 L347.592,280.512 L346.861,283.951 L346.309,285.732 L346.334,285.658 L345.68,287.411 L344.177,290.527 L341.438,294.668 L337.134,299.672 L332.45,304.696 L328.928,308.89 L326.68,312.054 L324.609,315.578 L322.771,319.552 L321.228,324.05 L320.041,329.146 L319.266,334.913 L318.958,341.428 L318.996,345.015 L318.996,345.015 C319.004,345.733 319.593,346.308 320.311,346.3 C321.029,346.292 321.604,345.704 321.596,344.986 L321.555,341.549 L321.843,335.257 L322.574,329.733 L323.689,324.891 L325.132,320.64 L326.853,316.892 L328.801,313.557 L330.919,310.561 L334.352,306.468 L339.108,301.365 L343.61,296.097 L346.52,291.653 L348.116,288.32 L348.77,286.568 L348.77,286.568 C348.779,286.543 348.788,286.519 348.795,286.494 L348.795,286.494 L349.406,284.483 L350.186,280.699 L350.428,277.136 L350.161,273.805 L349.421,270.718 L348.246,267.886 L346.68,265.318 L344.766,263.018 L342.55,260.985 L340.041,259.199 L335.886,257.026 L329.806,255.031 L323.315,254.03 L316.684,254.02 L310.185,255.004 L304.124,256.984 L300.026,259.13 L297.551,260.9 L295.346,262.937 L293.454,265.243 L291.92,267.814 L290.787,270.641 L290.095,273.712 L289.877,277.013 L290.163,280.537 L290.969,284.242 L291.561,286.127 C291.561,286.127 291.561,286.127 291.561,286.127 C291.776,286.812 292.505,287.193 293.19,286.978 C293.875,286.763 294.256,286.033 294.041,285.348 L294.041,285.348" fill="#C0C0C0"/>
        </g>
      </g>
    </g>
  </g>
  <defs>
    <linearGradient id="Gradient_1" gradientUnits="userSpaceOnUse" x1="148.174" y1="16.151" x2="296.826" y2="369.849">
      <stop offset="0" stop-color="#000000"/>
      <stop offset="0.218" stop-color="#FFFFFF"/>
      <stop offset="0.363" stop-color="#3C3C3C"/>
      <stop offset="0.524" stop-color="#FFFFFF"/>
      <stop offset="0.724" stop-color="#777777"/>
      <stop offset="0.833" stop-color="#FFFFFF"/>
      <stop offset="1" stop-color="#000000"/>
    </linearGradient>
    <linearGradient id="Gradient_2" gradientUnits="userSpaceOnUse" x1="148.174" y1="369.849" x2="296.826" y2="16.151">
      <stop offset="0" stop-color="#000000"/>
      <stop offset="0.201" stop-color="#FFFFFF"/>
      <stop offset="0.38" stop-color="#3F3F3F"/>
      <stop offset="0.519" stop-color="#FFFFFF"/>
      <stop offset="0.731" stop-color="#161616"/>
      <stop offset="0.876" stop-color="#FFFFFF"/>
      <stop offset="1" stop-color="#000000"/>
    </linearGradient>
  </defs>
</svg>
