<?xml version="1.0" encoding="UTF-8"?>
<!DOCTYPE svg PUBLIC "-//W3C//DTD SVG 1.1//EN" "http://www.w3.org/Graphics/SVG/1.1/DTD/svg11.dtd">
<svg version="1.1" xmlns="http://www.w3.org/2000/svg" xmlns:xlink="http://www.w3.org/1999/xlink" x="0px" y="0px" width="153" height="263" viewBox="0, 0, 153, 263">
  <g id="what layer">
    <g>
      <g>
        <g>
          <path d="M77.514,260.145 C73.976,260.145 71.108,256.564 71.108,252.147 C71.108,247.73 73.976,244.149 77.514,244.149 C81.051,244.149 83.919,247.73 83.919,252.147 C83.919,256.564 81.051,260.145 77.514,260.145 z" fill="#000000"/>
          <path d="M77.514,260.145 C73.976,260.145 71.108,256.564 71.108,252.147 C71.108,247.73 73.976,244.149 77.514,244.149 C81.051,244.149 83.919,247.73 83.919,252.147 C83.919,256.564 81.051,260.145 77.514,260.145 z" fill-opacity="0" stroke="#000000" stroke-width="5"/>
        </g>
        <path d="M11.71,79.188 L10.927,76.813 L9.663,72.312 L8.744,68.02 L8.142,63.893 L7.799,57.95 L8.343,50.598 L9.923,43.927 L12.442,37.849 L15.821,32.332 L19.992,27.354 L24.891,22.905 L30.449,18.987 L36.59,15.611 L43.233,12.785 L50.291,10.52 L57.675,8.824 L65.293,7.702 L73.054,7.16 L80.865,7.199 L88.633,7.82 L96.266,9.022 L103.672,10.803 L110.759,13.159 L117.436,16.083 L123.612,19.569 L129.203,23.606 L134.125,28.185 L138.303,33.296 L141.668,38.937 L144.154,45.118 L145.693,51.859 L146.205,59.191 L145.863,65.038 L145.274,69.123 L144.368,73.427 L143.135,77.896 L142.405,80.147 L142.454,80.008 L140.819,84.388 L137.06,92.179 L132.67,99.166 L127.723,105.671 L119.483,115.009 L110.713,124.355 L104.763,130.97 L98.912,138.116 L93.318,145.995 L88.143,154.805 L84.615,162.177 L82.476,167.497 L80.548,173.119 L78.835,179.101 L77.353,185.467 L76.121,192.24 L75.154,199.443 L74.471,207.101 L74.087,215.238 L74.02,223.879 L74.11,228.426 L74.11,228.426 C74.147,230.22 75.631,231.646 77.425,231.609 C79.22,231.573 80.645,230.089 80.609,228.294 L80.52,223.928 L80.58,215.542 L80.945,207.676 L81.597,200.304 L82.516,193.4 L83.685,186.937 L85.085,180.887 L86.699,175.223 L88.509,169.915 L90.482,164.974 L93.751,158.091 L98.622,149.753 L103.943,142.232 L109.595,135.317 L115.454,128.802 L124.359,119.306 L132.903,109.598 L138.182,102.611 L142.919,94.994 L146.909,86.661 L148.543,82.281 L148.543,82.281 C148.561,82.235 148.577,82.189 148.592,82.142 L148.592,82.142 L149.403,79.616 L150.73,74.756 L151.71,70.032 L152.354,65.388 L152.687,58.703 L152.021,50.376 L150.17,42.657 L147.233,35.578 L143.317,29.159 L138.534,23.409 L132.993,18.326 L126.794,13.901 L120.033,10.125 L112.8,6.987 L105.184,4.481 L97.27,2.6 L89.143,1.34 L80.889,0.699 L72.593,0.677 L64.338,1.273 L56.21,2.491 L48.293,4.334 L40.675,6.809 L33.442,9.924 L26.685,13.688 L20.499,18.113 L14.987,23.207 L10.257,28.971 L6.421,35.399 L3.589,42.466 L1.859,50.142 L1.311,58.337 L1.711,64.843 L2.39,69.39 L3.406,74.074 L4.754,78.848 L5.537,81.223 C6.099,82.928 7.937,83.854 9.641,83.292 C11.346,82.73 12.272,80.893 11.71,79.188 L11.71,79.188" fill="#000000"/>
      </g>
      <g>
        <path d="M77.514,260.145 C73.976,260.145 71.108,256.564 71.108,252.147 C71.108,247.73 73.976,244.149 77.514,244.149 C81.051,244.149 83.919,247.73 83.919,252.147 C83.919,256.564 81.051,260.145 77.514,260.145 z" fill-opacity="0" stroke="#C0C0C0" stroke-width="2"/>
        <path d="M9.858,79.796 L9.075,77.421 L7.786,72.838 L6.838,68.429 L6.213,64.176 L5.853,58.064 L6.398,50.458 L8.023,43.486 L10.636,37.112 L14.152,31.321 L18.491,26.107 L23.574,21.465 L29.32,17.395 L35.646,13.902 L42.466,10.99 L49.692,8.662 L57.235,6.921 L65.007,5.771 L72.916,5.213 L80.872,5.247 L88.786,5.874 L96.567,7.093 L104.126,8.904 L111.371,11.305 L118.215,14.293 L124.567,17.866 L130.34,22.02 L135.448,26.749 L139.807,32.052 L143.337,37.927 L145.959,44.377 L147.591,51.412 L148.149,59.042 L147.81,65.14 L147.205,69.393 L146.276,73.824 L145.015,78.41 L144.261,80.743 L144.281,80.687 L142.646,85.067 L138.818,93.021 L134.323,100.197 L129.277,106.847 L120.946,116.296 L112.136,125.687 L106.212,132.272 L100.421,139.348 L94.909,147.12 L89.825,155.789 L86.375,163.013 L84.286,168.22 L82.394,173.748 L80.71,179.635 L79.253,185.906 L78.039,192.586 L77.087,199.699 L76.413,207.271 L76.035,215.326 L75.97,223.891 L76.06,228.384 L76.06,228.384 C76.075,229.102 76.668,229.672 77.386,229.657 C78.104,229.643 78.674,229.049 78.66,228.331 L78.57,223.91 L78.632,215.448 L79.003,207.501 L79.664,200.043 L80.597,193.05 L81.785,186.494 L83.21,180.349 L84.854,174.589 L86.699,169.188 L88.722,164.132 L92.068,157.103 L97.031,148.623 L102.434,140.995 L108.146,134.011 L114.032,127.466 L122.896,118.015 L131.349,108.417 L136.528,101.575 L141.161,94.147 L145.082,85.977 L146.717,81.597 L146.717,81.597 C146.723,81.578 146.73,81.56 146.736,81.541 L146.736,81.541 L147.522,79.098 L148.821,74.355 L149.779,69.757 L150.407,65.28 L150.742,58.847 L150.123,50.818 L148.365,43.393 L145.563,36.583 L141.813,30.397 L137.211,24.839 L131.856,19.907 L125.839,15.599 L119.253,11.91 L112.188,8.836 L104.73,6.375 L96.969,4.524 L88.99,3.282 L80.882,2.647 L72.731,2.619 L64.625,3.199 L56.649,4.388 L48.893,6.187 L41.442,8.599 L34.386,11.627 L27.814,15.275 L21.817,19.548 L16.489,24.448 L11.926,29.977 L8.227,36.131 L5.489,42.902 L3.804,50.276 L3.257,58.219 L3.641,64.556 L4.296,68.977 L5.283,73.543 L6.606,78.235 L7.389,80.61 C7.614,81.292 8.349,81.663 9.031,81.438 C9.713,81.213 10.083,80.478 9.858,79.796 L9.858,79.796" fill="#C0C0C0"/>
      </g>
    </g>
  </g>
  <defs/>
</svg>
