<?xml version="1.0" encoding="UTF-8"?>
<!DOCTYPE svg PUBLIC "-//W3C//DTD SVG 1.1//EN" "http://www.w3.org/Graphics/SVG/1.1/DTD/svg11.dtd">
<svg version="1.1" xmlns="http://www.w3.org/2000/svg" xmlns:xlink="http://www.w3.org/1999/xlink" x="0px" y="0px" width="79" height="253" viewBox="0, 0, 79, 253">
  <g id="who layer">
    <g>
      <g>
        <path d="M40.095,40.204 L38.085,40.074 L34.853,39.322 L32.099,38.028 L29.668,36.246 L27.621,34.036 L26.024,31.467 L24.943,28.605 L24.437,25.515 L24.43,24.101 L24.425,24.504 L24.554,22.494 L25.306,19.262 L26.6,16.508 L28.383,14.077 L30.592,12.03 L33.162,10.433 L36.023,9.352 L39.113,8.846 L40.528,8.839 L40.124,8.834 L42.135,8.963 L45.367,9.715 L48.12,11.009 L50.552,12.791 L52.599,15.001 L54.196,17.57 L55.277,20.432 L55.783,23.522 L55.789,24.936 L55.795,24.533 L55.666,26.544 L54.913,29.776 L53.62,32.529 L51.837,34.96 L49.628,37.008 L47.058,38.604 L44.197,39.686 L41.107,40.192 L39.692,40.198 L39.692,40.198 C37.484,40.279 35.76,42.134 35.841,44.342 C35.922,46.55 37.778,48.274 39.985,48.193 L42.597,48.052 L47.208,47.097 L51.443,45.295 L55.206,42.742 L58.405,39.528 L60.945,35.743 L62.729,31.482 L63.649,27.057 L63.778,25.047 L63.778,25.047 C63.787,24.912 63.789,24.778 63.784,24.643 L63.784,24.643 L63.643,22.031 L62.689,17.421 L60.887,13.185 L58.333,9.422 L55.119,6.224 L51.335,3.683 L47.074,1.899 L42.648,0.979 L40.638,0.85 L40.638,0.85 C40.504,0.841 40.369,0.84 40.235,0.844 L40.235,0.844 L37.623,0.986 L33.012,1.94 L28.777,3.742 L25.014,6.295 L21.815,9.509 L19.274,13.294 L17.49,17.555 L16.571,21.98 L16.441,23.991 L16.441,23.991 C16.433,24.125 16.431,24.26 16.436,24.394 L16.436,24.394 L16.577,27.006 L17.531,31.616 L19.333,35.852 L21.887,39.615 L25.1,42.814 L28.885,45.354 L33.146,47.138 L37.571,48.058 L39.582,48.187 C39.582,48.187 39.582,48.187 39.582,48.187 C41.787,48.329 43.689,46.657 43.83,44.452 C43.972,42.248 42.3,40.345 40.095,40.204 L40.095,40.204" fill="#000000"/>
        <path d="M6.983,61.6 L2.769,120.706 L2.769,120.706 C2.612,122.91 4.271,124.823 6.474,124.981 C8.678,125.138 10.592,123.479 10.749,121.275 C10.749,121.275 10.749,121.275 10.749,121.275 L14.963,62.169 C14.963,62.169 14.963,62.169 14.963,62.169 C15.12,59.965 13.461,58.052 11.257,57.894 C9.054,57.737 7.14,59.396 6.983,61.6 L6.983,61.6" fill="#000000"/>
        <path d="M63.504,61.385 L69.26,120.351 L69.26,120.351 C69.475,122.55 71.431,124.158 73.63,123.943 C75.828,123.729 77.437,121.772 77.222,119.574 C77.222,119.574 77.222,119.574 77.222,119.574 L71.466,60.608 C71.251,58.409 69.295,56.801 67.096,57.016 C64.897,57.23 63.289,59.187 63.504,61.385 L63.504,61.385" fill="#000000"/>
        <path d="M48.962,147.943 L59.957,248.741 L59.957,248.741 C60.196,250.937 62.171,252.523 64.367,252.284 C66.563,252.044 68.149,250.069 67.91,247.873 C67.91,247.873 67.91,247.873 67.91,247.873 L56.915,147.075 C56.675,144.879 54.701,143.293 52.505,143.533 C50.309,143.772 48.723,145.747 48.962,147.943 L48.962,147.943" fill="#000000"/>
        <path d="M24.481,147.324 L15.742,248.282 L15.742,248.282 C15.552,250.483 17.182,252.422 19.382,252.612 C21.583,252.803 23.522,251.173 23.712,248.972 C23.712,248.972 23.712,248.972 23.712,248.972 L32.452,148.014 C32.452,148.014 32.452,148.014 32.452,148.014 C32.642,145.813 31.012,143.874 28.811,143.684 C26.61,143.493 24.672,145.123 24.481,147.324 L24.481,147.324" fill="#000000"/>
        <path d="M35.897,44.957 L36.607,144.501 L36.607,144.501 C36.622,146.71 38.426,148.488 40.635,148.473 C42.844,148.457 44.622,146.653 44.606,144.444 C44.606,144.444 44.606,144.444 44.606,144.444 L43.897,44.9 C43.897,44.9 43.897,44.9 43.897,44.9 C43.881,42.691 42.078,40.913 39.869,40.928 C37.66,40.944 35.882,42.748 35.897,44.957 L35.897,44.957" fill="#000000"/>
        <path d="M29.683,148.048 L52.787,148.036" fill-opacity="0" stroke="#000000" stroke-width="8.5"/>
        <path d="M67.165,56.733 L11.692,56.832 L11.692,56.832 C9.345,56.836 7.445,58.742 7.45,61.09 C7.454,63.437 9.36,65.336 11.707,65.332 C11.707,65.332 11.707,65.332 11.707,65.332 L67.18,65.233 C67.18,65.233 67.18,65.233 67.18,65.233 C69.527,65.228 71.426,63.322 71.422,60.975 C71.418,58.628 69.512,56.728 67.165,56.733 L67.165,56.733" fill="#000000"/>
      </g>
      <path d="M39.967,42.2 L37.957,42.07 L34.426,41.276 L31.296,39.86 L28.526,37.888 L26.187,35.431 L24.351,32.563 L23.09,29.358 L22.472,25.888 L22.432,24.174 L22.429,24.376 L22.558,22.365 L23.352,18.835 L24.769,15.705 L26.741,12.935 L29.197,10.596 L32.066,8.76 L35.27,7.499 L38.74,6.881 L40.454,6.84 L40.253,6.838 L42.263,6.967 L45.794,7.761 L48.924,9.177 L51.694,11.149 L54.033,13.606 L55.868,16.474 L57.13,19.679 L57.748,23.149 L57.788,24.863 L57.791,24.661 L57.662,26.672 L56.867,30.202 L55.451,33.333 L53.479,36.102 L51.022,38.441 L48.154,40.277 L44.949,41.539 L41.479,42.157 L39.765,42.197 L39.765,42.197 C38.662,42.237 37.8,43.165 37.84,44.269 C37.881,45.373 38.808,46.235 39.912,46.194 L42.225,46.087 L46.455,45.244 L50.347,43.623 L53.811,41.308 L56.763,38.386 L59.114,34.94 L60.775,31.056 L61.653,26.929 L61.783,24.918 L61.783,24.918 C61.787,24.851 61.788,24.784 61.785,24.717 L61.785,24.717 L61.678,22.404 L60.836,18.174 L59.214,14.282 L56.9,10.817 L53.977,7.866 L50.531,5.514 L46.647,3.853 L42.52,2.975 L40.509,2.846 L40.509,2.846 C40.442,2.842 40.375,2.841 40.308,2.843 L40.308,2.843 L37.995,2.951 L33.765,3.793 L29.873,5.415 L26.408,7.729 L23.457,10.651 L21.106,14.097 L19.444,17.982 L18.567,22.109 L18.437,24.119 L18.437,24.119 C18.433,24.186 18.432,24.253 18.434,24.321 L18.434,24.321 L18.542,26.633 L19.384,30.864 L21.006,34.756 L23.32,38.22 L26.242,41.172 L29.689,43.523 L33.573,45.184 L37.7,46.062 L39.71,46.191 C39.71,46.191 39.71,46.191 39.71,46.191 C40.813,46.262 41.764,45.426 41.835,44.324 C41.905,43.221 41.069,42.27 39.967,42.2 L39.967,42.2" fill="#A9A9A9"/>
      <path d="M8.978,61.584 L4.764,120.819 L4.764,120.819 C4.686,121.921 5.515,122.877 6.617,122.956 C7.719,123.034 8.675,122.205 8.754,121.103 C8.754,121.103 8.754,121.103 8.754,121.103 L12.968,61.868 C12.968,61.868 12.968,61.868 12.968,61.868 C13.046,60.766 12.217,59.81 11.115,59.731 C10.013,59.653 9.056,60.482 8.978,61.584 L8.978,61.584" fill="#A9A9A9"/>
      <path d="M65.494,61.032 L71.251,120.125 L71.251,120.125 C71.358,121.224 72.336,122.029 73.435,121.922 C74.534,121.815 75.339,120.837 75.232,119.737 L69.475,60.644 C69.368,59.545 68.39,58.74 67.291,58.847 C66.191,58.954 65.387,59.932 65.494,61.032 L65.494,61.032" fill="#A9A9A9"/>
      <path d="M50.95,148.04 L61.945,249.057 L61.945,249.057 C62.065,250.155 63.052,250.948 64.15,250.828 C65.248,250.709 66.041,249.722 65.922,248.624 C65.922,248.624 65.922,248.624 65.922,248.624 L54.927,147.607 C54.927,147.607 54.927,147.607 54.927,147.607 C54.807,146.509 53.82,145.716 52.722,145.836 C51.624,145.955 50.831,146.942 50.95,148.04 L50.95,148.04" fill="#A9A9A9"/>
      <path d="M26.474,147.811 L17.735,248.989 L17.735,248.989 C17.64,250.089 18.455,251.058 19.555,251.153 C20.656,251.248 21.625,250.433 21.72,249.333 L30.459,148.156 C30.459,148.156 30.459,148.156 30.459,148.156 C30.554,147.055 29.739,146.086 28.639,145.991 C27.538,145.896 26.569,146.711 26.474,147.811 L26.474,147.811" fill="#A9A9A9"/>
      <path d="M37.897,45.683 L38.607,145.443 L38.607,145.443 C38.614,146.547 39.516,147.436 40.621,147.428 C41.725,147.421 42.614,146.519 42.607,145.414 L41.897,45.654 C41.889,44.55 40.988,43.661 39.883,43.669 C38.778,43.676 37.889,44.578 37.897,45.683 L37.897,45.683" fill="#A9A9A9"/>
      <path d="M29.683,148.364 L52.787,148.352" fill-opacity="0" stroke="#A9A9A9" stroke-width="3.5"/>
      <path d="M67.169,59.073 L11.696,59.173 L11.696,59.173 C10.73,59.175 9.948,59.96 9.95,60.926 C9.951,61.893 10.736,62.675 11.703,62.673 C11.703,62.673 11.703,62.673 11.703,62.673 L67.175,62.573 C67.175,62.573 67.175,62.573 67.175,62.573 C68.142,62.572 68.924,61.787 68.922,60.82 C68.921,59.854 68.136,59.072 67.169,59.073 L67.169,59.073" fill="#A9A9A9"/>
    </g>
  </g>
  <defs/>
</svg>
